<?xml version="1.0" encoding="UTF-8" standalone="no"?>
<!-- Created with Inkscape (http://www.inkscape.org/) -->

<svg
   width="101.73003mm"
   height="100.84197mm"
   viewBox="0 0 101.73003 100.84197"
   version="1.1"
   id="svg1"
   xmlns="http://www.w3.org/2000/svg"
   xmlns:svg="http://www.w3.org/2000/svg">
  <defs
     id="defs1" />
  <g
     id="layer1"
     transform="translate(-63.898217,-55.827082)">
    <rect
       style="fill:#ffffff;fill-opacity:1;stroke-width:0.320046;stroke-dasharray:none"
       id="rect1"
       width="101.73003"
       height="100.57589"
       x="63.898216"
       y="56.093155" />
    <g
       id="g5928"
       transform="matrix(0.26458333,0,0,0.26458333,61.543819,50.664333)"
       style="stroke-width:1.00157;stroke-dasharray:none">
      <path
         style="fill:#ec770e;stroke-width:1.00157;stroke-dasharray:none"
         d="m 113.59408,343.58996 c -6.16443,-2.69125 -8.73736,-44.37422 -4.34513,-70.39353 1.09707,-6.49897 1.99468,-12.23647 1.99468,-12.75 0,-2.99994 2.99991,0.0487 6.21948,6.32061 12.49813,24.3469 44.6199,45.74571 68.66891,45.74571 6.6667,0 5.00611,2.00556 -8.50368,10.27024 -27.60316,16.88637 -53.63767,25.34589 -64.03426,20.80697 z m 95.64955,-56.97055 c -28.50759,-10.62801 -63.00898,-43.04053 -71.534,-67.20301 l -1.36505,-3.86897 9.54906,-11.26734 c 5.25199,-6.19704 11.41678,-14.51414 13.69953,-18.48245 4.7997,-8.34374 5.38969,-8.46154 7.74051,-1.54554 9.78139,28.77636 42.65711,51.88257 76.25004,53.5912 4.86205,0.2473 9.28049,0.89004 9.81877,1.42831 2.18668,2.18668 -14.36694,30.62215 -25.05759,43.04341 -7.21967,8.3884 -7.79747,8.5186 -19.10127,4.30439 z"
         id="path5929" />
      <path
         style="fill:#2e2a27;stroke-width:1.00157;stroke-dasharray:none"
         d="m 66.898615,396.68401 c -6.132832,-6.7767 7.066383,-26.32844 28.845012,-42.72756 11.193873,-8.42888 10.485733,-7.01632 8.386693,-16.7292 -4.01738,-18.58967 -4.194211,-46.50747 -0.4194,-66.2145 2.21195,-11.54788 2.12571,-12.14919 -1.93467,-13.48923 -6.63667,-2.1903 -15.565391,-15.09557 -15.527046,-22.44227 0.06291,-12.05327 17.010726,-21.74839 28.044086,-16.04282 3.30131,1.70718 4.3063,5.99088 1.20034,5.11637 -20.008884,-5.63371 -30.278388,10.25197 -16.492274,25.51155 5.055164,5.59546 7.617624,5.24311 9.807014,-1.34853 2.55965,-7.70637 10.35676,-23.89513 13.06768,-27.13179 2.9468,-3.51828 2.93889,-4.03064 -0.15635,-10.13175 -7.96023,-15.69061 -12.04479,-46.28614 -7.51225,-56.27087 6.6102,-14.56162 30.85327,-8.96777 41.2914,9.52758 3.03574,5.37903 3.15609,5.46793 4.55344,3.36341 3.417,-5.14628 8.1535,-0.90825 10.65594,9.53452 6.82306,28.47277 39.8129,51.8544 76.18475,53.99614 l 10.14935,0.59763 1.65838,-3.20695 c 1.22311,-2.36522 2.2338,-3.12507 3.85065,-2.89497 2.8804,0.40991 2.7608,6.79716 -0.23731,12.67395 -3.29228,6.45339 -2.94087,7.13624 3.67958,7.1499 15.37326,0.0317 28.45,7.57453 28.45,16.41025 0,13.81548 -28.54935,27.13761 -54.11801,25.25336 l -7.41801,-0.54666 -8.70303,9.18559 c -4.78667,5.05208 -13.03607,12.3336 -18.332,16.18117 -5.29592,3.84756 -9.61464,7.67256 -9.59715,8.5 0.0979,4.62958 5.64939,7.43188 14.4682,7.30327 21.22488,-0.30955 32.81756,-13.01909 26.63789,-29.20425 -2.2831,-5.97967 -1.92579,-8.11761 0.92545,-5.53728 5.6022,5.06993 6.57718,19.85419 1.78672,27.09307 -9.21453,13.92409 -38.10562,18.1935 -46.95818,6.93929 -2.66191,-3.38407 -4.15651,-3.26989 -10.28838,0.78602 -20.67526,13.67558 -45.9573,22.76923 -63.57676,22.86781 l -8.47325,0.0474 -12.676105,9.88037 c -12.317695,9.60102 -17.556131,15.22617 -23.203621,24.91657 -3.196113,5.48414 -3.247569,5.91214 -0.710787,5.91214 4.598349,0 24.087821,-9.9643 35.156753,-17.97444 9.79838,-7.09069 16.28116,-6.22551 18.71506,2.49769 2.42169,8.67942 4.03071,9.19458 13.99494,4.48072 15.63312,-7.39568 21.24637,-7.43832 29.27227,-0.22235 7.12401,6.4051 10.794,6.43874 23.82512,0.21838 12.47518,-5.95498 14.80728,-5.91358 28.16177,0.5 12.1924,5.85548 18.16838,6.33435 32.57772,2.61051 17.41328,-4.50014 17.72563,0.54494 0.33339,5.3849 -12.82521,3.56904 -20.8814,2.78573 -33.37853,-3.24541 -13.1083,-6.32609 -14.13276,-6.36937 -25.85243,-1.09229 -15.59268,7.02101 -19.57658,6.89793 -28.21837,-0.87178 -6.32826,-5.68965 -10.40919,-5.59841 -24.74968,0.55339 -14.0075,6.00894 -18.62126,4.93977 -20.15814,-4.67134 -1.16803,-7.30447 -3.11979,-6.95311 -18.59172,3.34697 -19.458967,12.95436 -34.265527,18.22059 -38.396145,13.65631 z m 74.431335,-55.76076 c 12.44029,-4.47124 40.39817,-19.4152 47.1401,-25.19719 2.27718,-1.95294 1.36012,-3.21331 -2.33803,-3.21331 -24.04901,0 -56.17078,-21.39881 -68.66891,-45.74571 -3.21957,-6.27187 -6.21948,-9.32055 -6.21948,-6.32061 0,0.51353 -0.89761,6.25103 -1.99468,12.75 -4.39223,26.01931 -1.8193,67.70228 4.34513,70.39353 3.96944,1.73298 19.7037,0.22018 27.73587,-2.66671 z m 66.67428,-38.72629 c 7.66504,-5.89811 7.72662,-6.85016 0.58857,-9.10023 -26.23993,-8.27141 -61.1696,-38.45184 -74.04035,-63.97341 -4.22899,-8.38572 -4.55411,-8.2093 -12.25238,6.64842 -6.05724,11.69054 -6.2257,14.13851 -1.6073,23.35666 17.01783,33.96691 67.0602,58.65156 87.31146,43.06856 z m 20.34067,-19.88194 c 10.69065,-12.42126 27.24427,-40.85673 25.05759,-43.04341 -0.53828,-0.53827 -4.95672,-1.18101 -9.81877,-1.42831 -33.59293,-1.70863 -66.46865,-24.81484 -76.25004,-53.5912 -2.35082,-6.916 -2.94081,-6.7982 -7.74051,1.54554 -2.28275,3.96831 -8.44754,12.28541 -13.69953,18.48245 l -9.54906,11.26734 1.36505,3.86897 c 6.79872,19.26961 36.76873,50.54061 59.534,62.11834 18.96519,9.64513 23.37627,9.7558 31.10127,0.78028 z m 31.62999,-2.73352 c 33.34531,-6.88119 37.72376,-24.75123 7.17537,-29.28527 -9.50161,-1.41024 -10.35226,-0.85297 -17.33142,11.35384 -3.25864,5.69948 -7.19614,12.00244 -8.75,14.00659 -1.55387,2.00414 -2.82521,4.14164 -2.82521,4.75 0,1.7406 11.39455,1.30794 21.73126,-0.82516 z M 132.74363,207.57461 c 2.75,-3.03983 8.37755,-9.14269 12.50567,-13.5619 8.99358,-9.62777 14.4344,-19.06714 11.84286,-20.54639 -0.9083,-0.51846 -3.01014,-3.3501 -4.67074,-6.29253 -10.21367,-18.09763 -32.30443,-21.33634 -34.74023,-5.09324 -1.02726,6.85025 3.79526,41.68141 7.09516,51.24558 0.62155,1.80146 2.09991,0.73424 7.96728,-5.75152 z m 137.5,8.10934 c -18.76301,-6.97897 -32.47266,-28.7457 -30.34036,-48.1712 1.72919,-15.7531 16.36112,-31.01653 33.08827,-34.5163 8.07701,-1.68993 7.76884,-1.32276 9.14886,-10.9005 2.54405,-17.65652 8.99901,-33.218326 18.61389,-44.87489 4.78544,-5.801617 5.32891,-6.922062 4.83469,-9.967549 -1.62578,-10.018535 8.28073,-15.31468 15.37548,-8.219925 5.28185,5.281849 0.92356,16.479167 -6.41412,16.479167 -8.61083,0 -21.48604,22.536864 -25.76657,45.101977 -1.77544,9.35933 -1.15008,10.89802 4.4292,10.89802 17.26226,0 36.01241,25.88731 34.88734,48.16704 -1.30977,25.93724 -32.5893,45.40246 -57.85668,36.00416 z m 24.00641,-6.17241 c 24.31121,-4.61053 34.98369,-31.56988 21.56325,-54.47014 -20.57505,-35.10866 -78.19944,-13.0808 -68.01975,26.00165 5.87924,22.57196 22.81728,32.95157 46.4565,28.46849 z M 269.3537,177.11725 c -2.79791,-1.55077 -5.02446,-5.19192 -5.07464,-8.29873 -0.0951,-5.8869 9.2408,-10.32047 14.48984,-6.88117 9.42413,6.17493 0.44812,20.64672 -9.4152,15.1799 z m -80.97061,-5.75192 c -25.64982,-7.38113 -38.7663,-45.07117 -22.86872,-65.71298 28.51301,-37.021982 82.7214,-16.883289 80.53203,29.91806 -1.21007,25.86698 -30.01863,43.75011 -57.66331,35.79492 z m 28.8452,-7.44066 c 23.38988,-6.94605 30.22035,-38.87395 12.61747,-58.97832 -17.12509,-19.55868 -49.01126,-14.364275 -62.97269,10.25854 -7.92298,13.97323 4.67881,42.51991 21.76429,49.30237 5.89461,2.33999 19.69655,2.05875 28.59093,-0.58259 z m -17.42722,-19.94444 c -4.32729,-4.66922 -4.0739,-16.05034 0.41078,-18.45047 6.37507,-3.41183 15.64457,-0.32598 17.51531,5.83091 2.93539,9.66084 -11.34879,19.71658 -17.92609,12.61956 z m 40.86849,-40.79991 c -0.28122,-0.73284 -0.0531,-3.320339 0.50693,-5.750001 4.96438,-21.537592 -2.7537,-54.752655 -14.05321,-60.478549 -10.48539,-5.313351 -7.78178,-17.439017 3.88831,-17.439017 7.69245,0 11.30074,6.098882 7.713,13.036817 -1.44645,2.79712 -1.35665,3.260682 1.87908,9.70034 8.95264,17.817275 11.32385,53.436091 4.0421,60.71784 -1.89738,1.89739 -3.3009,1.97242 -3.97621,0.21257 z"
         id="path5928" />
    </g>
    <g
       id="g2"
       transform="matrix(0.26458333,0,0,0.26458333,61.543819,50.664333)"
       style="stroke-width:1.00157;stroke-dasharray:none">
      <path
         style="fill:#ec770e;stroke-width:1.00157;stroke-dasharray:none"
         d="m 113.59408,343.58996 c -6.16443,-2.69125 -8.73736,-44.37422 -4.34513,-70.39353 1.09707,-6.49897 1.99468,-12.23647 1.99468,-12.75 0,-2.99994 2.99991,0.0487 6.21948,6.32061 12.49813,24.3469 44.6199,45.74571 68.66891,45.74571 6.6667,0 5.00611,2.00556 -8.50368,10.27024 -27.60316,16.88637 -53.63767,25.34589 -64.03426,20.80697 z m 95.64955,-56.97055 c -28.50759,-10.62801 -63.00898,-43.04053 -71.534,-67.20301 l -1.36505,-3.86897 9.54906,-11.26734 c 5.25199,-6.19704 11.41678,-14.51414 13.69953,-18.48245 4.7997,-8.34374 5.38969,-8.46154 7.74051,-1.54554 9.78139,28.77636 42.65711,51.88257 76.25004,53.5912 4.86205,0.2473 9.28049,0.89004 9.81877,1.42831 2.18668,2.18668 -14.36694,30.62215 -25.05759,43.04341 -7.21967,8.3884 -7.79747,8.5186 -19.10127,4.30439 z"
         id="path1" />
      <path
         style="fill:#2e2a27;stroke-width:1.00157;stroke-dasharray:none"
         d="m 66.898615,396.68401 c -6.132832,-6.7767 7.066383,-26.32844 28.845012,-42.72756 11.193873,-8.42888 10.485733,-7.01632 8.386693,-16.7292 -4.01738,-18.58967 -4.194211,-46.50747 -0.4194,-66.2145 2.21195,-11.54788 2.12571,-12.14919 -1.93467,-13.48923 -6.63667,-2.1903 -15.565391,-15.09557 -15.527046,-22.44227 0.06291,-12.05327 17.010726,-21.74839 28.044086,-16.04282 3.30131,1.70718 4.3063,5.99088 1.20034,5.11637 -20.008884,-5.63371 -30.278388,10.25197 -16.492274,25.51155 5.055164,5.59546 7.617624,5.24311 9.807014,-1.34853 2.55965,-7.70637 10.35676,-23.89513 13.06768,-27.13179 2.9468,-3.51828 2.93889,-4.03064 -0.15635,-10.13175 -7.96023,-15.69061 -12.04479,-46.28614 -7.51225,-56.27087 6.6102,-14.56162 30.85327,-8.96777 41.2914,9.52758 3.03574,5.37903 3.15609,5.46793 4.55344,3.36341 3.417,-5.14628 8.1535,-0.90825 10.65594,9.53452 6.82306,28.47277 39.8129,51.8544 76.18475,53.99614 l 10.14935,0.59763 1.65838,-3.20695 c 1.22311,-2.36522 2.2338,-3.12507 3.85065,-2.89497 2.8804,0.40991 2.7608,6.79716 -0.23731,12.67395 -3.29228,6.45339 -2.94087,7.13624 3.67958,7.1499 15.37326,0.0317 28.45,7.57453 28.45,16.41025 0,13.81548 -28.54935,27.13761 -54.11801,25.25336 l -7.41801,-0.54666 -8.70303,9.18559 c -4.78667,5.05208 -13.03607,12.3336 -18.332,16.18117 -5.29592,3.84756 -9.61464,7.67256 -9.59715,8.5 0.0979,4.62958 5.64939,7.43188 14.4682,7.30327 21.22488,-0.30955 32.81756,-13.01909 26.63789,-29.20425 -2.2831,-5.97967 -1.92579,-8.11761 0.92545,-5.53728 5.6022,5.06993 6.57718,19.85419 1.78672,27.09307 -9.21453,13.92409 -38.10562,18.1935 -46.95818,6.93929 -2.66191,-3.38407 -4.15651,-3.26989 -10.28838,0.78602 -20.67526,13.67558 -45.9573,22.76923 -63.57676,22.86781 l -8.47325,0.0474 -12.676105,9.88037 c -12.317695,9.60102 -17.556131,15.22617 -23.203621,24.91657 -3.196113,5.48414 -3.247569,5.91214 -0.710787,5.91214 4.598349,0 24.087821,-9.9643 35.156753,-17.97444 9.79838,-7.09069 16.28116,-6.22551 18.71506,2.49769 2.42169,8.67942 4.03071,9.19458 13.99494,4.48072 15.63312,-7.39568 21.24637,-7.43832 29.27227,-0.22235 7.12401,6.4051 10.794,6.43874 23.82512,0.21838 12.47518,-5.95498 14.80728,-5.91358 28.16177,0.5 12.1924,5.85548 18.16838,6.33435 32.57772,2.61051 17.41328,-4.50014 17.72563,0.54494 0.33339,5.3849 -12.82521,3.56904 -20.8814,2.78573 -33.37853,-3.24541 -13.1083,-6.32609 -14.13276,-6.36937 -25.85243,-1.09229 -15.59268,7.02101 -19.57658,6.89793 -28.21837,-0.87178 -6.32826,-5.68965 -10.40919,-5.59841 -24.74968,0.55339 -14.0075,6.00894 -18.62126,4.93977 -20.15814,-4.67134 -1.16803,-7.30447 -3.11979,-6.95311 -18.59172,3.34697 -19.458967,12.95436 -34.265527,18.22059 -38.396145,13.65631 z m 74.431335,-55.76076 c 12.44029,-4.47124 40.39817,-19.4152 47.1401,-25.19719 2.27718,-1.95294 1.36012,-3.21331 -2.33803,-3.21331 -24.04901,0 -56.17078,-21.39881 -68.66891,-45.74571 -3.21957,-6.27187 -6.21948,-9.32055 -6.21948,-6.32061 0,0.51353 -0.89761,6.25103 -1.99468,12.75 -4.39223,26.01931 -1.8193,67.70228 4.34513,70.39353 3.96944,1.73298 19.7037,0.22018 27.73587,-2.66671 z m 66.67428,-38.72629 c 7.66504,-5.89811 7.72662,-6.85016 0.58857,-9.10023 -26.23993,-8.27141 -61.1696,-38.45184 -74.04035,-63.97341 -4.22899,-8.38572 -4.55411,-8.2093 -12.25238,6.64842 -6.05724,11.69054 -6.2257,14.13851 -1.6073,23.35666 17.01783,33.96691 67.0602,58.65156 87.31146,43.06856 z m 20.34067,-19.88194 c 10.69065,-12.42126 27.24427,-40.85673 25.05759,-43.04341 -0.53828,-0.53827 -4.95672,-1.18101 -9.81877,-1.42831 -33.59293,-1.70863 -66.46865,-24.81484 -76.25004,-53.5912 -2.35082,-6.916 -2.94081,-6.7982 -7.74051,1.54554 -2.28275,3.96831 -8.44754,12.28541 -13.69953,18.48245 l -9.54906,11.26734 1.36505,3.86897 c 6.79872,19.26961 36.76873,50.54061 59.534,62.11834 18.96519,9.64513 23.37627,9.7558 31.10127,0.78028 z m 31.62999,-2.73352 c 33.34531,-6.88119 37.72376,-24.75123 7.17537,-29.28527 -9.50161,-1.41024 -10.35226,-0.85297 -17.33142,11.35384 -3.25864,5.69948 -7.19614,12.00244 -8.75,14.00659 -1.55387,2.00414 -2.82521,4.14164 -2.82521,4.75 0,1.7406 11.39455,1.30794 21.73126,-0.82516 z M 132.74363,207.57461 c 2.75,-3.03983 8.37755,-9.14269 12.50567,-13.5619 8.99358,-9.62777 14.4344,-19.06714 11.84286,-20.54639 -0.9083,-0.51846 -3.01014,-3.3501 -4.67074,-6.29253 -10.21367,-18.09763 -32.30443,-21.33634 -34.74023,-5.09324 -1.02726,6.85025 3.79526,41.68141 7.09516,51.24558 0.62155,1.80146 2.09991,0.73424 7.96728,-5.75152 z m 137.5,8.10934 c -18.76301,-6.97897 -32.47266,-28.7457 -30.34036,-48.1712 1.72919,-15.7531 16.36112,-31.01653 33.08827,-34.5163 8.07701,-1.68993 7.76884,-1.32276 9.14886,-10.9005 2.54405,-17.65652 8.99901,-33.218326 18.61389,-44.87489 4.78544,-5.801617 5.32891,-6.922062 4.83469,-9.967549 -1.62578,-10.018535 8.28073,-15.31468 15.37548,-8.219925 5.28185,5.281849 0.92356,16.479167 -6.41412,16.479167 -8.61083,0 -21.48604,22.536864 -25.76657,45.101977 -1.77544,9.35933 -1.15008,10.89802 4.4292,10.89802 17.26226,0 36.01241,25.88731 34.88734,48.16704 -1.30977,25.93724 -32.5893,45.40246 -57.85668,36.00416 z m 24.00641,-6.17241 c 24.31121,-4.61053 34.98369,-31.56988 21.56325,-54.47014 -20.57505,-35.10866 -78.19944,-13.0808 -68.01975,26.00165 5.87924,22.57196 22.81728,32.95157 46.4565,28.46849 z M 269.3537,177.11725 c -2.79791,-1.55077 -5.02446,-5.19192 -5.07464,-8.29873 -0.0951,-5.8869 9.2408,-10.32047 14.48984,-6.88117 9.42413,6.17493 0.44812,20.64672 -9.4152,15.1799 z m -80.97061,-5.75192 c -25.64982,-7.38113 -38.7663,-45.07117 -22.86872,-65.71298 28.51301,-37.021982 82.7214,-16.883289 80.53203,29.91806 -1.21007,25.86698 -30.01863,43.75011 -57.66331,35.79492 z m 28.8452,-7.44066 c 23.38988,-6.94605 30.22035,-38.87395 12.61747,-58.97832 -17.12509,-19.55868 -49.01126,-14.364275 -62.97269,10.25854 -7.92298,13.97323 4.67881,42.51991 21.76429,49.30237 5.89461,2.33999 19.69655,2.05875 28.59093,-0.58259 z m -17.42722,-19.94444 c -4.32729,-4.66922 -4.0739,-16.05034 0.41078,-18.45047 6.37507,-3.41183 15.64457,-0.32598 17.51531,5.83091 2.93539,9.66084 -11.34879,19.71658 -17.92609,12.61956 z m 40.86849,-40.79991 c -0.28122,-0.73284 -0.0531,-3.320339 0.50693,-5.750001 4.96438,-21.537592 -2.7537,-54.752655 -14.05321,-60.478549 -10.48539,-5.313351 -7.78178,-17.439017 3.88831,-17.439017 7.69245,0 11.30074,6.098882 7.713,13.036817 -1.44645,2.79712 -1.35665,3.260682 1.87908,9.70034 8.95264,17.817275 11.32385,53.436091 4.0421,60.71784 -1.89738,1.89739 -3.3009,1.97242 -3.97621,0.21257 z"
         id="path2" />
    </g>
  </g>
</svg>
